<?xml version="1.0" encoding="UTF-8" standalone="no"?>
<!-- Created with Inkscape (http://www.inkscape.org/) -->

<svg
   width="121.04176mm"
   height="49.188721mm"
   viewBox="0 0 121.04176 49.18872"
   version="1.1"
   id="svg749"
   inkscape:version="1.2.2 (732a01da63, 2022-12-09)"
   sodipodi:docname="Iconos.svg"
   xmlns:inkscape="http://www.inkscape.org/namespaces/inkscape"
   xmlns:sodipodi="http://sodipodi.sourceforge.net/DTD/sodipodi-0.dtd"
   xmlns="http://www.w3.org/2000/svg"
   xmlns:svg="http://www.w3.org/2000/svg">
  <sodipodi:namedview
     id="namedview751"
     pagecolor="#ffffff"
     bordercolor="#000000"
     borderopacity="0.25"
     inkscape:showpageshadow="2"
     inkscape:pageopacity="0.0"
     inkscape:pagecheckerboard="0"
     inkscape:deskcolor="#d1d1d1"
     inkscape:document-units="mm"
     showgrid="false"
     inkscape:zoom="0.89263468"
     inkscape:cx="230.7775"
     inkscape:cy="494.04309"
     inkscape:window-width="2560"
     inkscape:window-height="1377"
     inkscape:window-x="1912"
     inkscape:window-y="-8"
     inkscape:window-maximized="1"
     inkscape:current-layer="layer1" />
  <defs
     id="defs746" />
  <g
     inkscape:label="Capa 1"
     inkscape:groupmode="layer"
     id="layer1"
     transform="translate(-43.81445,-17.791871)">
    <g
       id="g147"
       transform="matrix(0.35277777,0,0,-0.35277777,157.50841,52.264186)">
      <path
         d="m 0,0 c -5.354,0 -9.709,-4.356 -9.709,-9.709 0,-5.354 4.355,-9.71 9.709,-9.71 5.354,0 9.709,4.356 9.709,9.71 C 9.709,-4.356 5.354,0 0,0 m 0,-22.356 c -6.973,0 -12.646,5.673 -12.646,12.647 0,6.972 5.673,12.646 12.646,12.646 6.973,0 12.646,-5.674 12.646,-12.646 0,-6.974 -5.673,-12.647 -12.646,-12.647"
         style="fill:#1b1c1c;fill-opacity:1;fill-rule:nonzero;stroke:none"
         id="path149" />
    </g>
    <g
       id="g151"
       transform="matrix(0.35277777,0,0,-0.35277777,151.21782,65.944484)">
      <path
         d="M 0,0 H 35.663 C 34.914,9.181 27.203,16.423 17.832,16.423 8.461,16.423 0.75,9.181 0,0 M 37.191,-2.937 H -1.528 c -0.81,0 -1.468,0.658 -1.468,1.469 0,11.484 9.343,20.827 20.828,20.827 11.484,0 20.828,-9.343 20.828,-20.827 0,-0.811 -0.658,-1.469 -1.469,-1.469"
         style="fill:#1b1c1c;fill-opacity:1;fill-rule:nonzero;stroke:none"
         id="path153" />
    </g>
    <g
       id="g155"
       transform="matrix(0.35277777,0,0,-0.35277777,49.023214,19.717378)"
       inkscape:export-filename="corazon.png"
       inkscape:export-xdpi="39.893726"
       inkscape:export-ydpi="39.893726">
      <path
         d="m 0,0 c -3.031,0 -6.062,-1.153 -8.369,-3.46 -4.614,-4.615 -4.614,-12.123 0,-16.738 l 18.371,-18.373 c 0.264,-0.263 0.737,-0.263 1,0 l 18.372,18.373 c 4.614,4.615 4.614,12.123 0,16.738 C 27.142,-1.229 24.169,0 21.005,0 H 21.003 C 17.838,0 14.867,-1.229 12.636,-3.46 L 11.54,-4.555 c -0.574,-0.573 -1.503,-0.572 -2.076,0 L 8.37,-3.46 C 6.062,-1.153 3.031,0 0,0 m 10.502,-41.714 c -0.958,0 -1.897,0.388 -2.575,1.066 l -18.372,18.373 c -5.76,5.76 -5.76,15.131 0,20.891 5.759,5.759 15.131,5.759 20.891,0 l 0.056,-0.057 0.058,0.058 c 2.784,2.785 6.494,4.32 10.443,4.32 h 0.002 c 3.949,0 7.659,-1.535 10.445,-4.321 5.759,-5.76 5.759,-15.131 0,-20.891 L 13.079,-40.647 c -0.679,-0.679 -1.618,-1.067 -2.577,-1.067"
         style="fill:#1b1c1c;fill-opacity:1;fill-rule:nonzero;stroke:none"
         id="path157" />
    </g>
    <g
       id="g159"
       transform="matrix(0.35277777,0,0,-0.35277777,116.90175,22.120983)">
      <path
         d="m 0,0 15.46,-8.778 c 0.245,-0.139 0.445,-0.346 0.576,-0.596 l 9.106,-17.393 8.552,35.532 z m 25.654,-32.38 c -0.541,0 -1.045,0.298 -1.3,0.787 l -10.72,20.475 -18.231,10.351 c -0.52,0.295 -0.809,0.876 -0.731,1.469 0.078,0.592 0.508,1.078 1.086,1.229 l 39.567,10.293 c 0.499,0.13 1.029,-0.012 1.399,-0.373 0.368,-0.362 0.519,-0.89 0.398,-1.392 l -10.04,-41.715 c -0.144,-0.595 -0.64,-1.038 -1.248,-1.114 -0.06,-0.007 -0.12,-0.01 -0.18,-0.01"
         style="fill:#1b1c1c;fill-opacity:1;fill-rule:nonzero;stroke:none"
         id="path161" />
    </g>
    <g
       id="g163"
       transform="matrix(0.35277777,0,0,-0.35277777,122.09986,26.186006)">
      <path
         d="m 0,0 c -0.377,0 -0.754,0.144 -1.041,0.433 -0.572,0.574 -0.569,1.504 0.005,2.076 l 20.96,20.857 c 0.575,0.573 1.505,0.571 2.076,-0.005 0.573,-0.574 0.57,-1.504 -0.004,-2.076 L 1.036,0.428 C 0.75,0.143 0.375,0 0,0"
         style="fill:#1b1c1c;fill-opacity:1;fill-rule:nonzero;stroke:none"
         id="path165" />
    </g>
    <g
       id="g167"
       transform="matrix(0.35277777,0,0,-0.35277777,86.992792,18.827979)">
      <path
         d="m 0,0 c -10.691,0 -19.39,-8.698 -19.39,-19.389 0,-10.691 8.699,-19.389 19.39,-19.389 4.015,0 7.869,1.221 11.148,3.53 0.417,0.295 0.956,0.35 1.424,0.149 l 5.141,-2.203 -2.378,4.68 c -0.254,0.501 -0.2,1.103 0.138,1.551 2.562,3.387 3.916,7.427 3.916,11.682 C 19.389,-8.698 10.691,0 0,0 m 20.857,-41.715 c -0.195,0 -0.392,0.039 -0.578,0.118 l -8.126,3.483 C 8.53,-40.473 4.346,-41.715 0,-41.715 c -12.311,0 -22.326,10.015 -22.326,22.326 0,12.31 10.015,22.326 22.326,22.326 12.311,0 22.326,-10.016 22.326,-22.326 0,-4.589 -1.368,-8.961 -3.966,-12.702 l 3.807,-7.491 c 0.279,-0.55 0.185,-1.218 -0.238,-1.668 -0.284,-0.304 -0.674,-0.465 -1.072,-0.465"
         style="fill:#1b1c1c;fill-opacity:1;fill-rule:nonzero;stroke:none"
         id="path169" />
    </g>
    <g
       id="g171"
       transform="matrix(0.35277777,0,0,-0.35277777,157.50841,26.032901)">
      <path
         d="m 0,0 c 0.394,0 0.771,-0.159 1.048,-0.44 l 15.507,-15.792 v 36.655 h -33.11 V -16.232 L -1.048,-0.44 C -0.771,-0.159 -0.394,0 0,0 m 18.023,-21.292 c -0.386,0 -0.766,0.153 -1.048,0.439 L 0,-3.564 -16.975,-20.853 c -0.418,-0.424 -1.05,-0.557 -1.604,-0.33 -0.551,0.226 -0.912,0.764 -0.912,1.36 v 41.715 c 0,0.811 0.657,1.468 1.468,1.468 h 36.046 c 0.811,0 1.469,-0.657 1.469,-1.468 v -41.715 c 0,-0.596 -0.361,-1.134 -0.913,-1.36 -0.18,-0.073 -0.369,-0.109 -0.556,-0.109"
         style="fill:#1b1c1c;fill-opacity:1;fill-rule:nonzero;stroke:none"
         id="path173" />
    </g>
    <g
       id="g175"
       transform="matrix(0.35277777,0,0,-0.35277777,55.064357,65.944484)">
      <path
         d="M 0,0 H 12.767 V 17.636 L -6.622,38.111 -26.011,17.636 V 0 h 12.767 v 12.245 c 0,3.651 2.971,6.621 6.622,6.621 3.651,0 6.622,-2.97 6.622,-6.621 z M 14.235,-2.937 H -1.468 c -0.811,0 -1.469,0.658 -1.469,1.469 v 13.713 c 0,2.031 -1.653,3.685 -3.685,3.685 -2.032,0 -3.685,-1.654 -3.685,-3.685 V -1.468 c 0,-0.811 -0.657,-1.469 -1.468,-1.469 h -15.704 c -0.812,0 -1.469,0.658 -1.469,1.469 v 19.689 c 0,0.376 0.144,0.737 0.402,1.01 l 20.858,22.025 c 0.554,0.586 1.578,0.586 2.132,0 L 15.302,19.231 c 0.258,-0.273 0.402,-0.634 0.402,-1.01 V -1.468 c 0,-0.811 -0.658,-1.469 -1.469,-1.469"
         style="fill:#1b1c1c;fill-opacity:1;fill-rule:nonzero;stroke:none"
         id="path177" />
    </g>
    <g
       id="g179"
       transform="matrix(0.35277777,0,0,-0.35277777,86.301383,52.264186)">
      <path
         d="m 0,0 c -9.61,0 -17.43,-7.819 -17.43,-17.43 0,-9.611 7.82,-17.43 17.43,-17.43 9.611,0 17.431,7.819 17.431,17.43 C 17.431,-7.819 9.611,0 0,0 m 0,-37.797 c -11.23,0 -20.366,9.136 -20.366,20.367 0,11.23 9.136,20.367 20.366,20.367 11.23,0 20.367,-9.137 20.367,-20.367 0,-11.231 -9.137,-20.367 -20.367,-20.367"
         style="fill:#1b1c1c;fill-opacity:1;fill-rule:nonzero;stroke:none"
         id="path181" />
    </g>
    <g
       id="g183"
       transform="matrix(0.35277777,0,0,-0.35277777,94.350678,66.980416)">
      <path
         d="m 0,0 c -0.375,0 -0.751,0.144 -1.038,0.43 l -9.453,9.454 c -0.574,0.573 -0.574,1.503 0,2.076 0.573,0.574 1.503,0.574 2.076,0 L 1.039,2.506 C 1.612,1.933 1.612,1.003 1.039,0.43 0.752,0.144 0.376,0 0,0"
         style="fill:#1b1c1c;fill-opacity:1;fill-rule:nonzero;stroke:none"
         id="path185" />
    </g>
    <g
       id="g187"
       transform="matrix(0.35277777,0,0,-0.35277777,115.62448,54.87266)">
      <path
         d="m 0,0 c -1.887,0 -3.423,-1.536 -3.423,-3.423 v -24.538 c 0,-1.888 1.536,-3.424 3.423,-3.424 h 39.063 c 1.888,0 3.423,1.536 3.423,3.424 V -3.423 C 42.486,-1.536 40.951,0 39.063,0 h -8.846 c -0.811,0 -1.469,0.657 -1.469,1.468 v 2.503 c 0,1.887 -1.535,3.423 -3.423,3.423 H 13.738 c -1.887,0 -3.423,-1.536 -3.423,-3.423 V 1.468 C 10.315,0.657 9.658,0 8.847,0 Z M 39.063,-34.321 H 0 c -3.507,0 -6.359,2.853 -6.359,6.36 v 24.538 c 0,3.507 2.852,6.36 6.359,6.36 h 7.378 v 1.034 c 0,3.507 2.853,6.36 6.36,6.36 h 11.587 c 3.507,0 6.36,-2.853 6.36,-6.36 V 2.937 h 7.378 c 3.507,0 6.36,-2.853 6.36,-6.36 v -24.538 c 0,-3.507 -2.853,-6.36 -6.36,-6.36"
         style="fill:#1b1c1c;fill-opacity:1;fill-rule:nonzero;stroke:none"
         id="path189" />
    </g>
    <g
       id="g191"
       transform="matrix(0.35277777,0,0,-0.35277777,122.51483,56.798121)">
      <path
         d="m 0,0 c -5.643,0 -10.234,-4.591 -10.234,-10.234 0,-5.643 4.591,-10.235 10.234,-10.235 5.643,0 10.234,4.592 10.234,10.235 C 10.234,-4.591 5.643,0 0,0 m 0,-23.405 c -7.263,0 -13.171,5.908 -13.171,13.171 0,7.262 5.908,13.171 13.171,13.171 7.263,0 13.171,-5.909 13.171,-13.171 0,-7.263 -5.908,-13.171 -13.171,-13.171"
         style="fill:#1b1c1c;fill-opacity:1;fill-rule:nonzero;stroke:none"
         id="path193" />
    </g>
  </g>
</svg>
